<svg viewBox="0 0 1024 1024" xmlns="http://www.w3.org/2000/svg"><path d="M508.651 211.14c7.375 1.119 14.774 2.096 22.12 3.38 49.826 8.701 92.82 29.748 124.269 70.553 21.727 28.192 31.018 60.221 26.586 95.864-.174 1.395-.251 2.801-.351 4.204-.036.512-.006 1.029-.006 1.911 43.896 12.368 74.778 39.355 89.502 82.877 10.949 32.364 8.552 64.535-6.848 95.134-32.151 63.881-102.563 79.759-148.818 63.102 64.19-.612 105.009-47.357 112.087-94.244 8.841-58.561-27.349-100.684-56.593-114.483-9.94 19.886-23.297 37.187-40.276 51.111 3.778-11.061 8.525-22.018 11.258-33.457 13.924-58.306-10.217-118.276-61.146-153.027-25.095-17.124-52.859-26.606-83.221-28.045-49.998-2.368-92.673 14.153-127.668 50.105-1.683 1.729-3.166 3.651-5.371 6.214 3.783.944 6.746 1.699 9.716 2.422 62.413 15.188 111.959 48.558 145.588 103.911 19.893 32.743 29.077 68.554 25.665 106.766-4.069 45.586-20.825 85.552-57.473 114.921-38.805 31.098-94.428 34.755-135.335 9.68-37.225-22.818-50.867-69.111-31.243-106.406 14.89-28.297 45.563-39.054 72.922-34.877-3.545.892-6.116 1.437-8.626 2.186-21.164 6.313-35.453 24.283-36.226 45.5-.853 23.437 12.14 43.323 33.639 51.484 27.969 10.617 62.732.906 84.153-23.341 15.792-17.877 23.645-39.167 24.671-62.488 2.445-55.535-17.271-101.482-62.447-135.006-24.037-17.836-51.72-26.759-81.563-27.617-57.896-1.665-102.565 23.736-136.286 69.415-20.417 27.658-31.374 59.173-32.265 93.646-2.206 85.379 35.763 148.408 108.699 190.789 40.912 23.773 85.772 33.653 132.972 31.507 46.505-2.116 89.126-16.431 127.988-42.618-5.265 4.771-10.417 9.674-15.824 14.278a389.565 389.565 0 01-17.265 13.859c-5.847 4.431-11.916 8.567-19.162 13.744 8.24 2.104 15.228 4.168 22.337 5.653 32.223 6.732 64.399 7.727 96.391-1.454 16.391-4.704 31.078-12.695 44.893-22.646 24.71-17.797 50.46-33.783 79.366-44.126 22.902-8.193 46.396-10.34 70.526-8.511 20.483 1.553 41.012 2.652 61.539 3.463 18.317.722 36.396-1.654 55.552-6.269-14.112 9.317-28.261 15.324-43.594 17.426-15.964 2.188-32.129 4.075-48.207 4.078-52.469.012-98.509 16.939-138.4 50.679-36.491 30.863-78.963 46.972-126.005 52.056-43.637 4.716-85.343-1.828-124.755-21.708-1.989-1.002-5.14-.955-7.304-.169-33.644 12.225-68.394 17.562-104.012 15.14-61.412-4.176-115.027-27.311-160.157-69.229-43.213-40.14-69.276-89.572-78.089-147.979-.934-6.188-1.668-12.408-2.495-18.614v-31.647c.396-1.469.924-2.915 1.167-4.408 2.276-14.008 3.442-28.292 6.916-41.994 24.543-96.818 109.069-163.403 209.368-165.392 3.016-.06 4.653-1.02 6.214-3.626 4.324-7.221 8.503-14.636 13.716-21.199 31.522-39.691 73.834-60.453 122.875-69.085 7.528-1.326 15.124-2.272 22.688-3.394l31.648.001z" fill="#BA404B"/><path d="M744.628 613.173c5.664-6.722 11.164-13.998 17.551-20.387 2.012-2.014 6.409-2.305 9.7-2.266 20.507.246 37.907 8.056 52.15 22.689 6.979 7.17 13.688 14.621 20.222 22.199 15.211 17.644 31.998 32.563 56.807 34.519-18.501 1.557-36.069-1.41-51.92-11.118-9.56-5.855-18.573-12.638-27.606-19.312-15.102-11.157-30.879-20.935-49.814-23.833-8.983-1.374-18.126-1.699-27.09-2.491z" fill="#BA404B"/></svg>
